<svg width="124" height="37" viewBox="0 0 124 37" fill="none" xmlns="http://www.w3.org/2000/svg">
<path fill-rule="evenodd" clip-rule="evenodd" d="M12.3539 4.85485L1.07261 24.2661C-1.13537 28.0653 0.174942 32.9233 3.99927 35.1168C5.50391 35.9798 7.09808 36.1434 8.77988 36.1434L31.5899 36.1434C36.0059 36.1434 39.5857 32.5871 39.5857 28.2002C39.5857 26.6914 39.0083 25.2426 37.8611 23.272L26.6451 3.97295C24.4371 0.173767 19.5469 -1.12793 15.7226 1.06553C14.1532 1.96567 13.3818 3.09616 12.3539 4.85485ZM15.4322 16.4523C16.8766 18.9375 16.8766 22.0066 15.4322 24.4919L11.9407 30.4996C10.6833 32.6632 7.89832 33.4045 5.72036 32.1554C3.5424 30.9062 2.79618 28.1396 4.05363 25.9759L12.5224 11.404C12.6067 11.5766 12.6979 11.7474 12.7959 11.9162L15.4322 16.4523ZM26.254 20.1994C23.3996 20.2046 20.7587 18.6885 19.3238 16.221L15.5015 9.64807C14.6554 7.58744 15.4492 5.1709 17.4437 4.02695C19.6216 2.77777 22.4066 3.51909 23.664 5.68273L32.0945 20.1888L26.254 20.1994ZM14.7289 32.7239L31.5899 32.7239C34.1048 32.7239 36.1435 30.6986 36.1435 28.2002C36.1435 25.7019 34.1048 23.6765 31.5899 23.6765L24.5781 23.6765C21.7229 23.6765 19.0841 25.1982 17.654 27.6695L14.7289 32.7239Z" fill="white"/>
<path d="M76.1431 13.0471C76.1431 9.57933 73.4488 7.37257 68.2673 7.37257H59V28.523H69.0075C74.189 28.523 77.0906 26.087 77.0906 22.5333C77.0906 19.9826 75.018 18.0624 72.827 17.6612C74.7515 17.0594 76.1431 15.1965 76.1431 13.0471ZM72.0572 13.5056C72.0572 15.2252 70.6656 16.2569 68.1785 16.2569H63.1451V10.869H68.1785C70.784 10.869 72.0572 11.8147 72.0572 13.5056ZM72.8862 22.1894C72.8862 23.9089 71.6131 24.998 68.9187 24.998H63.1451V19.5527H68.9779C71.4354 19.5527 72.8862 20.5558 72.8862 22.1894Z" fill="white"/>
<path d="M84.3915 7H80.3648V28.523H84.3915V7Z" fill="white"/>
<path d="M87.6324 20.8137C87.5436 25.3705 91.3335 28.9816 96.1004 28.9243C100.986 28.9243 104.568 25.4278 104.568 20.8137C104.568 16.1996 100.986 12.7032 96.1004 12.7032C91.3335 12.6459 87.5436 16.2569 87.6324 20.8137ZM100.719 20.8137C100.719 22.1607 100.275 23.2497 99.4165 24.1382C98.5578 25.0266 97.4623 25.4565 96.1004 25.4565C94.7384 25.4565 93.6429 25.0266 92.7843 24.1382C91.9256 23.2497 91.5111 22.1607 91.5111 20.8137C91.5111 18.1771 93.3764 16.1423 96.1004 16.1423C98.8539 16.1423 100.719 18.1771 100.719 20.8137Z" fill="white"/>
<path d="M119.944 13.1044V15.0532C118.878 13.5343 117.012 12.7032 114.762 12.7032C110.321 12.7032 107.005 15.999 107.005 20.3838C106.946 24.654 110.351 28.1505 114.762 28.0645C116.983 28.0645 118.878 27.2334 119.944 25.7144V27.0614C119.944 30.0706 118.226 31.6755 115.177 31.6755C113.252 31.6755 111.683 30.8731 110.824 29.6121L107.686 31.5036C109.137 33.567 111.861 35 115.177 35C120.181 35 124 32.1341 124 27.0614V13.1044H119.944ZM119.944 20.3838C119.944 22.9918 118.108 24.654 115.414 24.654C112.719 24.654 110.884 22.8772 110.884 20.3838C110.884 17.8905 112.719 16.085 115.414 16.085C118.108 16.085 119.944 17.7758 119.944 20.3838Z" fill="white"/>
</svg>
