<svg width="204" height="37" viewBox="0 0 204 37" fill="none" xmlns="http://www.w3.org/2000/svg">
<path fill-rule="evenodd" clip-rule="evenodd" d="M12.3541 4.85399L1.07285 24.2653C-1.13513 28.0645 0.175186 32.9225 3.99951 35.1159C5.50415 35.9789 7.09833 36.1426 8.78012 36.1426L31.5901 36.1426C36.0061 36.1426 39.5859 32.5863 39.5859 28.1994C39.5859 26.6906 39.0086 25.2418 37.8614 23.2712L26.6453 3.9721C24.4373 0.172913 19.5472 -1.12879 15.7228 1.06467C14.1534 1.96482 13.382 3.09531 12.3541 4.85399ZM15.4324 16.4514C16.8768 18.9367 16.8768 22.0058 15.4324 24.491L11.9409 30.4987C10.6835 32.6624 7.89856 33.4037 5.7206 32.1545C3.54265 30.9053 2.79643 28.1387 4.05387 25.9751L12.5227 11.4031C12.607 11.5757 12.6981 11.7466 12.7962 11.9153L15.4324 16.4514ZM26.2543 20.1985C23.3999 20.2037 20.7589 18.6877 19.324 16.2202L15.5018 9.64722C14.6556 7.58658 15.4494 5.17005 17.4439 4.02609C19.6219 2.77692 22.4068 3.51823 23.6643 5.68187L32.0948 20.1879L26.2543 20.1985ZM14.7292 32.723L31.5901 32.723C34.105 32.723 36.1438 30.6977 36.1438 28.1994C36.1438 25.701 34.105 23.6757 31.5901 23.6757L24.5783 23.6757C21.7231 23.6757 19.0843 25.1974 17.6542 27.6686L14.7292 32.723Z" fill="#0E0D12"/>
<path d="M71.0126 9.22901V11.747C69.6671 9.90283 67.5781 8.76797 64.8164 8.76797C60.001 8.76797 56 12.8109 56 18.095C56 23.3437 60.001 27.4221 64.8164 27.4221C67.5781 27.4221 69.6671 26.2872 71.0126 24.4076V26.9611H74.8365V9.22901H71.0126ZM65.4183 23.7693C62.2316 23.7693 59.824 21.3932 59.824 18.095C59.824 14.7969 62.2316 12.4208 65.4183 12.4208C68.6049 12.4208 71.0126 14.7969 71.0126 18.095C71.0126 21.3932 68.6049 23.7693 65.4183 23.7693Z" fill="#0E0D12"/>
<path d="M82.02 14.1231C82.02 12.8463 83.2239 12.2435 84.6047 12.2435C86.0564 12.2435 87.2957 12.8818 87.933 14.2649L91.155 12.4562C89.9158 10.1156 87.5081 8.76797 84.6047 8.76797C80.9932 8.76797 78.1252 10.8604 78.1252 14.194C78.1252 20.5421 87.6497 18.7689 87.6497 21.9252C87.6497 23.3437 86.3397 23.9111 84.6401 23.9111C82.6928 23.9111 81.2765 22.9536 80.71 21.3577L77.4171 23.2728C78.5501 25.8262 81.0994 27.4221 84.6401 27.4221C88.4641 27.4221 91.5445 25.507 91.5445 21.9606C91.5445 15.3998 82.02 17.3503 82.02 14.1231Z" fill="#0E0D12"/>
<path d="M97.8093 14.1231C97.8093 12.8463 99.0132 12.2435 100.394 12.2435C101.846 12.2435 103.085 12.8818 103.722 14.2649L106.944 12.4562C105.705 10.1156 103.297 8.76797 100.394 8.76797C96.7825 8.76797 93.9146 10.8604 93.9146 14.194C93.9146 20.5421 103.439 18.7689 103.439 21.9252C103.439 23.3437 102.129 23.9111 100.429 23.9111C98.4821 23.9111 97.0658 22.9536 96.4993 21.3577L93.2064 23.2728C94.3395 25.8262 96.8888 27.4221 100.429 27.4221C104.253 27.4221 107.334 25.507 107.334 21.9606C107.334 15.3998 97.8093 17.3503 97.8093 14.1231Z" fill="#0E0D12"/>
<path d="M112.547 19.7264H126.639C126.71 19.2299 126.781 18.6625 126.781 18.1305C126.781 13.0237 123.169 8.76797 117.894 8.76797C112.335 8.76797 108.546 12.8463 108.546 18.095C108.546 23.4146 112.335 27.4221 118.177 27.4221C121.647 27.4221 124.302 25.9681 125.931 23.5565L122.78 21.7124C121.93 22.9536 120.337 23.9111 118.212 23.9111C115.38 23.9111 113.149 22.4926 112.547 19.7264ZM112.512 16.6055C113.043 13.9457 114.99 12.2435 117.858 12.2435C120.16 12.2435 122.39 13.5556 122.922 16.6055H112.512Z" fill="#0E0D12"/>
<path d="M148.77 8.76797C146.397 8.76797 144.521 9.7255 143.352 11.5696C142.326 9.79643 140.626 8.76797 138.325 8.76797C136.129 8.76797 134.394 9.61911 133.261 11.3569V9.22901H129.438V26.9611H133.261V17.0311C133.261 13.8039 135.032 12.3498 137.192 12.3498C139.281 12.3498 140.52 13.7329 140.52 16.2154V26.9611H144.344V17.0311C144.344 13.8039 145.937 12.3498 148.203 12.3498C150.292 12.3498 151.638 13.7329 151.638 16.2154V26.9611H155.462V15.9672C155.462 11.5342 152.771 8.76797 148.77 8.76797Z" fill="#0E0D12"/>
<path d="M168.866 8.76797C166.105 8.76797 164.016 9.90283 162.67 11.747V2.13619H158.846V26.9611H162.67V24.4076C164.016 26.2872 166.105 27.4221 168.866 27.4221C173.682 27.4221 177.683 23.3437 177.683 18.095C177.683 12.8109 173.682 8.76797 168.866 8.76797ZM168.264 23.7693C165.078 23.7693 162.67 21.3932 162.67 18.095C162.67 14.7969 165.078 12.4208 168.264 12.4208C171.451 12.4208 173.859 14.7969 173.859 18.095C173.859 21.3932 171.451 23.7693 168.264 23.7693Z" fill="#0E0D12"/>
<path d="M180.44 26.9611H184.264V1.07227H180.44V26.9611Z" fill="#0E0D12"/>
<path d="M199.928 9.22901L195.396 22.1025L190.12 9.22901H185.942L193.449 26.6419L193.272 26.9965C192.387 29.3372 191.041 30.6139 188.563 30.472V34.0539C192.634 34.3021 195.538 32.0324 197.202 27.5285L204 9.22901H199.928Z" fill="#0E0D12"/>
</svg>
