<svg width="16" height="16" viewBox="0 0 16 16" fill="none" xmlns="http://www.w3.org/2000/svg">
<g clip-path="url(#clip0_1_9)">
<path d="M13.7518 9.52C13.6276 9.6056 13.4825 9.65612 13.332 9.66622C13.1815 9.67633 13.031 9.64566 12.8964 9.57744C12.5805 9.39897 12.4103 8.98051 12.4103 8.41026V6.66256C12.4103 5.82359 12.0779 5.22667 11.5221 5.06462C10.5826 4.78974 9.88103 5.94051 9.61026 6.37333L7.94872 9.06256V5.78051C7.93026 5.02359 7.6841 4.57026 7.21846 4.43487C6.91077 4.34462 6.44923 4.38154 6 5.06667L2.28513 11.0297C1.79085 10.0841 1.53456 9.03217 1.53846 7.96513C1.53846 4.37128 4.41026 1.44821 7.94872 1.44821C11.4872 1.44821 14.3692 4.37128 14.3692 7.96513V7.98359C14.3692 7.98359 14.3692 7.9959 14.3692 8.00205C14.4041 8.69744 14.1785 9.25128 13.7538 9.52H13.7518ZM15.8031 7.96718V7.93231C15.7744 3.55282 12.2626 0 7.94872 0C3.63487 0 0.102564 3.57333 0.102564 7.96513C0.102564 12.3569 3.62256 15.9323 7.94872 15.9323C9.93288 15.9322 11.8416 15.1717 13.2821 13.8072C13.4219 13.6754 13.5042 13.4939 13.5111 13.3019C13.518 13.11 13.449 12.923 13.319 12.7815C13.2568 12.7127 13.1816 12.6569 13.0977 12.6173C13.0138 12.5776 12.923 12.555 12.8303 12.5506C12.7377 12.5462 12.6451 12.5602 12.5578 12.5917C12.4706 12.6233 12.3905 12.6717 12.3221 12.7344C11.7019 13.3226 10.9692 13.7796 10.168 14.0776C9.36689 14.3757 8.51374 14.5088 7.65986 14.469C6.80597 14.4291 5.96894 14.2171 5.19904 13.8457C4.42911 13.4743 3.74217 12.9512 3.17949 12.3077L6.52308 6.93333V9.41333C6.52308 10.6051 6.98462 10.9908 7.37231 11.1036C7.76 11.2164 8.35282 11.1385 8.97436 10.1292L10.8205 7.14051C10.8779 7.0441 10.9333 6.96205 10.9826 6.89026V8.41026C10.9826 9.5241 11.4297 10.4144 12.2133 10.8533C12.5696 11.0457 12.9711 11.1386 13.3757 11.1224C13.7803 11.1061 14.1731 10.9813 14.5128 10.761C15.3744 10.201 15.8441 9.18769 15.7949 7.96718H15.8031Z" fill="#C3D0E4" fill-opacity="0.6"/>
</g>
<defs>
<clipPath id="clip0_1_9">
<rect width="16" height="16" fill="white"/>
</clipPath>
</defs>
</svg>
