<svg width="406" height="265" viewBox="0 0 406 265" fill="none" xmlns="http://www.w3.org/2000/svg">
<circle cx="15.5" cy="72.5" r="0.75" fill="#8493AD"/>
<circle cx="15.5" cy="87.5" r="0.75" fill="#8493AD"/>
<circle cx="15.5" cy="102.5" r="0.75" fill="#8493AD"/>
<circle cx="15.5" cy="117.5" r="0.75" fill="#8493AD"/>
<ellipse cx="15.4961" cy="132.5" rx="1.5" ry="1.5" fill="#8493AD"/>
<ellipse cx="15.4961" cy="147.5" rx="1.5" ry="1.5" fill="#8493AD"/>
<ellipse cx="15.4961" cy="162.5" rx="1.5" ry="1.5" fill="#8493AD"/>
<circle cx="15.5" cy="177.5" r="0.75" fill="#8493AD"/>
<circle cx="15.5" cy="192.5" r="0.75" fill="#8493AD"/>
<circle cx="15.5" cy="207.5" r="0.75" fill="#8493AD"/>
<ellipse cx="15.4961" cy="222.5" rx="1.5" ry="1.5" fill="#8493AD"/>
<circle cx="15.5" cy="237.5" r="0.75" fill="#8493AD"/>
<circle cx="15.5" cy="252.5" r="0.75" fill="#8493AD"/>
<circle cx="30.5" cy="42.5" r="0.75" fill="#8493AD"/>
<ellipse cx="30.4961" cy="57.5" rx="1.5" ry="1.5" fill="#8493AD"/>
<circle cx="30.5" cy="72.5" r="0.75" fill="#8493AD"/>
<circle cx="30.5" cy="87.5" r="0.75" fill="#8493AD"/>
<circle cx="30.5" cy="102.5" r="0.75" fill="#8493AD"/>
<circle cx="30.5" cy="117.5" r="0.75" fill="#8493AD"/>
<circle cx="30.5" cy="132.5" r="0.75" fill="#8493AD"/>
<circle cx="30.5" cy="147.5" r="0.75" fill="#8493AD"/>
<circle cx="30.5" cy="162.5" r="0.75" fill="#8493AD"/>
<ellipse cx="30.4961" cy="177.5" rx="1.5" ry="1.5" fill="#8493AD"/>
<circle cx="30.5" cy="192.5" r="0.75" fill="#8493AD"/>
<circle cx="30.5" cy="207.5" r="0.75" fill="#8493AD"/>
<circle cx="30.5" cy="222.5" r="0.75" fill="#8493AD"/>
<circle cx="30.5" cy="237.5" r="0.75" fill="#8493AD"/>
<ellipse cx="30.4961" cy="252.5" rx="1.5" ry="1.5" fill="#8493AD"/>
<circle cx="45.5" cy="27.5" r="0.75" fill="#8493AD"/>
<circle cx="45.5" cy="42.5" r="0.75" fill="#8493AD"/>
<circle cx="45.5" cy="57.5" r="0.75" fill="#8493AD"/>
<circle cx="45.5" cy="72.5" r="0.75" fill="#8493AD"/>
<ellipse cx="45.4961" cy="87.5" rx="1.5" ry="1.5" fill="#8493AD"/>
<ellipse cx="45.4961" cy="102.5" rx="1.5" ry="1.5" fill="#8493AD"/>
<circle cx="45.5" cy="117.5" r="0.75" fill="#8493AD"/>
<circle cx="45.5" cy="132.5" r="0.75" fill="#8493AD"/>
<ellipse cx="45.4961" cy="147.5" rx="1.5" ry="1.5" fill="#8493AD"/>
<circle cx="45.5" cy="162.5" r="0.75" fill="#8493AD"/>
<ellipse cx="45.4961" cy="177.5" rx="1.5" ry="1.5" fill="#8493AD"/>
<circle cx="45.5" cy="192.5" r="0.75" fill="#8493AD"/>
<circle cx="45.5" cy="207.5" r="0.75" fill="#8493AD"/>
<circle cx="45.5" cy="222.5" r="0.75" fill="#8493AD"/>
<circle cx="45.5" cy="237.5" r="0.75" fill="#8493AD"/>
<circle cx="45.5" cy="252.5" r="0.75" fill="#8493AD"/>
<circle cx="60.5" cy="12.5" r="0.75" fill="#8493AD"/>
<circle cx="60.5" cy="27.5" r="0.75" fill="#8493AD"/>
<circle cx="60.5" cy="42.5" r="0.75" fill="#8493AD"/>
<ellipse cx="60.4961" cy="57.5" rx="1.5" ry="1.5" fill="#8493AD"/>
<circle cx="60.5" cy="72.5" r="0.75" fill="#8493AD"/>
<ellipse cx="60.4961" cy="87.5" rx="1.5" ry="1.5" fill="#8493AD"/>
<circle cx="60.5" cy="102.5" r="0.75" fill="#8493AD"/>
<circle cx="60.5" cy="117.5" r="0.75" fill="#8493AD"/>
<ellipse cx="60.4961" cy="132.5" rx="1.5" ry="1.5" fill="#8493AD"/>
<circle cx="60.5" cy="147.5" r="0.75" fill="#8493AD"/>
<circle cx="60.5" cy="162.5" r="0.75" fill="#8493AD"/>
<circle cx="60.5" cy="177.5" r="0.75" fill="#8493AD"/>
<circle cx="60.5" cy="192.5" r="0.75" fill="#8493AD"/>
<circle cx="60.5" cy="207.5" r="0.75" fill="#8493AD"/>
<ellipse cx="60.4961" cy="222.5" rx="1.5" ry="1.5" fill="#8493AD"/>
<circle cx="60.5" cy="237.5" r="0.75" fill="#8493AD"/>
<circle cx="60.5" cy="252.5" r="0.75" fill="#8493AD"/>
<circle cx="75.5" cy="12.5" r="0.75" fill="#8493AD"/>
<circle cx="75.5" cy="27.5" r="0.75" fill="#8493AD"/>
<circle cx="75.5" cy="42.5" r="0.75" fill="#8493AD"/>
<circle cx="75.5" cy="57.5" r="0.75" fill="#8493AD"/>
<ellipse cx="75.4961" cy="72.5" rx="1.5" ry="1.5" fill="#8493AD"/>
<ellipse cx="75.4961" cy="87.5" rx="1.5" ry="1.5" fill="#8493AD"/>
<circle cx="75.5" cy="102.5" r="0.75" fill="#8493AD"/>
<circle cx="75.5" cy="117.5" r="0.75" fill="#8493AD"/>
<ellipse cx="75.4961" cy="132.5" rx="1.5" ry="1.5" fill="#8493AD"/>
<circle cx="75.5" cy="147.5" r="0.75" fill="#8493AD"/>
<circle cx="75.5" cy="162.5" r="0.75" fill="#8493AD"/>
<circle cx="75.5" cy="177.5" r="0.75" fill="#8493AD"/>
<circle cx="75.5" cy="192.5" r="0.75" fill="#8493AD"/>
<circle cx="75.5" cy="207.5" r="0.75" fill="#8493AD"/>
<ellipse cx="75.4961" cy="222.5" rx="1.5" ry="1.5" fill="#8493AD"/>
<circle cx="75.5" cy="237.5" r="0.75" fill="#8493AD"/>
<circle cx="75.5" cy="252.5" r="0.75" fill="#8493AD"/>
<circle cx="90.5" cy="42.5" r="0.75" fill="#8493AD"/>
<circle cx="90.5" cy="57.5" r="0.75" fill="#8493AD"/>
<circle cx="90.5" cy="72.5" r="0.75" fill="#8493AD"/>
<circle cx="90.5" cy="87.5" r="0.75" fill="#8493AD"/>
<circle cx="90.5" cy="102.5" r="0.75" fill="#8493AD"/>
<circle cx="90.5" cy="117.5" r="0.75" fill="#8493AD"/>
<circle cx="90.5" cy="132.5" r="0.75" fill="#8493AD"/>
<circle cx="90.5" cy="147.5" r="0.75" fill="#8493AD"/>
<circle cx="90.5" cy="162.5" r="0.75" fill="#8493AD"/>
<ellipse cx="90.4961" cy="177.5" rx="1.5" ry="1.5" fill="#8493AD"/>
<circle cx="90.5" cy="192.5" r="0.75" fill="#8493AD"/>
<circle cx="90.5" cy="207.5" r="0.75" fill="#8493AD"/>
<circle cx="90.5" cy="222.5" r="0.75" fill="#8493AD"/>
<circle cx="90.5" cy="237.5" r="0.75" fill="#8493AD"/>
<circle cx="90.5" cy="252.5" r="0.75" fill="#8493AD"/>
<circle cx="105.5" cy="42.5" r="0.75" fill="#8493AD"/>
<circle cx="105.5" cy="57.5" r="0.75" fill="#8493AD"/>
<circle cx="105.5" cy="72.5" r="0.75" fill="#8493AD"/>
<circle cx="105.5" cy="87.5" r="0.75" fill="#8493AD"/>
<circle cx="105.5" cy="102.5" r="0.75" fill="#8493AD"/>
<ellipse cx="105.496" cy="117.5" rx="1.5" ry="1.5" fill="#8493AD"/>
<ellipse cx="105.496" cy="132.5" rx="1.5" ry="1.5" fill="#8493AD"/>
<ellipse cx="105.496" cy="147.5" rx="1.5" ry="1.5" fill="#8493AD"/>
<circle cx="105.5" cy="162.5" r="0.75" fill="#8493AD"/>
<circle cx="105.5" cy="177.5" r="0.75" fill="#8493AD"/>
<circle cx="105.5" cy="192.5" r="0.75" fill="#8493AD"/>
<circle cx="105.5" cy="207.5" r="0.75" fill="#8493AD"/>
<ellipse cx="105.496" cy="222.5" rx="1.5" ry="1.5" fill="#8493AD"/>
<ellipse cx="105.496" cy="237.5" rx="1.5" ry="1.5" fill="#8493AD"/>
<circle cx="105.5" cy="252.5" r="0.75" fill="#8493AD"/>
<circle cx="120.5" cy="27.5" r="0.75" fill="#8493AD"/>
<circle cx="120.5" cy="42.5" r="0.75" fill="#8493AD"/>
<ellipse cx="120.496" cy="57.5" rx="1.5" ry="1.5" fill="#8493AD"/>
<circle cx="120.5" cy="72.5" r="0.75" fill="#8493AD"/>
<ellipse cx="120.496" cy="87.5" rx="1.5" ry="1.5" fill="#8493AD"/>
<ellipse cx="120.496" cy="102.5" rx="1.5" ry="1.5" fill="#8493AD"/>
<circle cx="120.5" cy="117.5" r="0.75" fill="#8493AD"/>
<circle cx="120.5" cy="132.5" r="0.75" fill="#8493AD"/>
<circle cx="120.5" cy="147.5" r="0.75" fill="#8493AD"/>
<circle cx="120.5" cy="162.5" r="0.75" fill="#8493AD"/>
<circle cx="120.5" cy="177.5" r="0.75" fill="#8493AD"/>
<circle cx="120.5" cy="192.5" r="0.75" fill="#8493AD"/>
<circle cx="120.5" cy="207.5" r="0.75" fill="#8493AD"/>
<circle cx="120.5" cy="222.5" r="0.75" fill="#8493AD"/>
<circle cx="120.5" cy="237.5" r="0.75" fill="#8493AD"/>
<circle cx="120.5" cy="252.5" r="0.75" fill="#8493AD"/>
<circle cx="135.5" cy="42.5" r="0.75" fill="#8493AD"/>
<ellipse cx="135.496" cy="57.5" rx="1.5" ry="1.5" fill="#8493AD"/>
<circle cx="135.5" cy="72.5" r="0.75" fill="#8493AD"/>
<circle cx="135.5" cy="87.5" r="0.75" fill="#8493AD"/>
<circle cx="135.5" cy="102.5" r="0.75" fill="#8493AD"/>
<circle cx="135.5" cy="117.5" r="0.75" fill="#8493AD"/>
<ellipse cx="135.496" cy="132.5" rx="1.5" ry="1.5" fill="#8493AD"/>
<ellipse cx="135.496" cy="147.5" rx="1.5" ry="1.5" fill="#8493AD"/>
<circle cx="135.5" cy="162.5" r="0.75" fill="#8493AD"/>
<circle cx="135.5" cy="177.5" r="0.75" fill="#8493AD"/>
<circle cx="135.5" cy="192.5" r="0.75" fill="#8493AD"/>
<ellipse cx="135.496" cy="207.5" rx="1.5" ry="1.5" fill="#8493AD"/>
<ellipse cx="135.496" cy="222.5" rx="1.5" ry="1.5" fill="#8493AD"/>
<circle cx="135.5" cy="237.5" r="0.75" fill="#8493AD"/>
<ellipse cx="135.496" cy="252.5" rx="1.5" ry="1.5" fill="#8493AD"/>
<circle cx="150.5" cy="102.5" r="0.75" fill="#8493AD"/>
<circle cx="150.5" cy="117.5" r="0.75" fill="#8493AD"/>
<circle cx="150.5" cy="132.5" r="0.75" fill="#8493AD"/>
<ellipse cx="150.496" cy="147.5" rx="1.5" ry="1.5" fill="#8493AD"/>
<ellipse cx="150.496" cy="162.5" rx="1.5" ry="1.5" fill="#8493AD"/>
<circle cx="150.5" cy="177.5" r="0.75" fill="#8493AD"/>
<circle cx="150.5" cy="192.5" r="0.75" fill="#8493AD"/>
<ellipse cx="150.496" cy="207.5" rx="1.5" ry="1.5" fill="#8493AD"/>
<ellipse cx="150.496" cy="222.5" rx="1.5" ry="1.5" fill="#8493AD"/>
<circle cx="150.5" cy="237.5" r="0.75" fill="#8493AD"/>
<ellipse cx="150.496" cy="252.5" rx="1.5" ry="1.5" fill="#8493AD"/>
<circle cx="165.5" cy="117.5" r="0.75" fill="#8493AD"/>
<ellipse cx="165.496" cy="132.5" rx="1.5" ry="1.5" fill="#8493AD"/>
<circle cx="165.5" cy="147.5" r="0.75" fill="#8493AD"/>
<ellipse cx="165.496" cy="162.5" rx="1.5" ry="1.5" fill="#8493AD"/>
<circle cx="165.5" cy="177.5" r="0.75" fill="#8493AD"/>
<circle cx="165.5" cy="192.5" r="0.75" fill="#8493AD"/>
<circle cx="165.5" cy="207.5" r="0.75" fill="#8493AD"/>
<circle cx="165.5" cy="222.5" r="0.75" fill="#8493AD"/>
<circle cx="165.5" cy="237.5" r="0.75" fill="#8493AD"/>
<ellipse cx="165.496" cy="252.5" rx="1.5" ry="1.5" fill="#8493AD"/>
<circle cx="180.5" cy="117.5" r="0.75" fill="#8493AD"/>
<ellipse cx="180.496" cy="132.5" rx="1.5" ry="1.5" fill="#8493AD"/>
<circle cx="180.5" cy="147.5" r="0.75" fill="#8493AD"/>
<circle cx="180.5" cy="162.5" r="0.75" fill="#8493AD"/>
<ellipse cx="180.496" cy="177.5" rx="1.5" ry="1.5" fill="#8493AD"/>
<circle cx="180.5" cy="192.5" r="0.75" fill="#8493AD"/>
<circle cx="180.5" cy="207.5" r="0.75" fill="#8493AD"/>
<circle cx="180.5" cy="222.5" r="0.75" fill="#8493AD"/>
<circle cx="180.5" cy="237.5" r="0.75" fill="#8493AD"/>
<circle cx="180.5" cy="252.5" r="0.75" fill="#8493AD"/>
<circle cx="195.5" cy="102.5" r="0.75" fill="#8493AD"/>
<circle cx="195.5" cy="117.5" r="0.75" fill="#8493AD"/>
<ellipse cx="195.496" cy="132.5" rx="1.5" ry="1.5" fill="#8493AD"/>
<ellipse cx="195.496" cy="147.5" rx="1.5" ry="1.5" fill="#8493AD"/>
<circle cx="195.5" cy="162.5" r="0.75" fill="#8493AD"/>
<circle cx="195.5" cy="177.5" r="0.75" fill="#8493AD"/>
<circle cx="195.5" cy="192.5" r="0.75" fill="#8493AD"/>
<circle cx="195.5" cy="207.5" r="0.75" fill="#8493AD"/>
<circle cx="195.5" cy="222.5" r="0.75" fill="#8493AD"/>
<circle cx="195.5" cy="237.5" r="0.75" fill="#8493AD"/>
<ellipse cx="195.496" cy="252.5" rx="1.5" ry="1.5" fill="#8493AD"/>
<ellipse cx="210.496" cy="147.5" rx="1.5" ry="1.5" fill="#8493AD"/>
<circle cx="210.5" cy="162.5" r="0.75" fill="#8493AD"/>
<ellipse cx="210.496" cy="177.5" rx="1.5" ry="1.5" fill="#8493AD"/>
<circle cx="210.5" cy="192.5" r="0.75" fill="#8493AD"/>
<circle cx="210.5" cy="207.5" r="0.75" fill="#8493AD"/>
<circle cx="210.5" cy="222.5" r="0.75" fill="#8493AD"/>
<circle cx="210.5" cy="237.5" r="0.75" fill="#8493AD"/>
<ellipse cx="210.496" cy="252.5" rx="1.5" ry="1.5" fill="#8493AD"/>
<ellipse cx="225.496" cy="147.5" rx="1.5" ry="1.5" fill="#8493AD"/>
<ellipse cx="225.496" cy="162.5" rx="1.5" ry="1.5" fill="#8493AD"/>
<ellipse cx="225.496" cy="177.5" rx="1.5" ry="1.5" fill="#8493AD"/>
<circle cx="225.5" cy="192.5" r="0.75" fill="#8493AD"/>
<circle cx="225.5" cy="207.5" r="0.75" fill="#8493AD"/>
<circle cx="225.5" cy="222.5" r="0.75" fill="#8493AD"/>
<circle cx="225.5" cy="237.5" r="0.75" fill="#8493AD"/>
<circle cx="225.5" cy="252.5" r="0.75" fill="#8493AD"/>
<circle cx="240.5" cy="162.5" r="0.75" fill="#8493AD"/>
<ellipse cx="240.496" cy="177.5" rx="1.5" ry="1.5" fill="#8493AD"/>
<circle cx="240.5" cy="192.5" r="0.75" fill="#8493AD"/>
<circle cx="240.5" cy="207.5" r="0.75" fill="#8493AD"/>
<circle cx="240.5" cy="222.5" r="0.75" fill="#8493AD"/>
<ellipse cx="240.496" cy="237.5" rx="1.5" ry="1.5" fill="#8493AD"/>
<ellipse cx="240.496" cy="252.5" rx="1.5" ry="1.5" fill="#8493AD"/>
<circle cx="255.5" cy="162.5" r="0.75" fill="#8493AD"/>
<circle cx="255.5" cy="177.5" r="0.75" fill="#8493AD"/>
<circle cx="255.5" cy="192.5" r="0.75" fill="#8493AD"/>
<circle cx="255.5" cy="207.5" r="0.75" fill="#8493AD"/>
<circle cx="255.5" cy="222.5" r="0.75" fill="#8493AD"/>
<circle cx="255.5" cy="237.5" r="0.75" fill="#8493AD"/>
<ellipse cx="255.496" cy="252.5" rx="1.5" ry="1.5" fill="#8493AD"/>
<circle cx="270.5" cy="177.5" r="0.75" fill="#8493AD"/>
<circle cx="270.5" cy="192.5" r="0.75" fill="#8493AD"/>
<ellipse cx="270.496" cy="207.5" rx="1.5" ry="1.5" fill="#8493AD"/>
<circle cx="270.5" cy="222.5" r="0.75" fill="#8493AD"/>
<circle cx="270.5" cy="237.5" r="0.75" fill="#8493AD"/>
<ellipse cx="270.496" cy="252.5" rx="1.5" ry="1.5" fill="#8493AD"/>
<circle cx="285.5" cy="162.5" r="0.75" fill="#8493AD"/>
<ellipse cx="285.496" cy="177.5" rx="1.5" ry="1.5" fill="#8493AD"/>
<circle cx="285.5" cy="192.5" r="0.75" fill="#8493AD"/>
<circle cx="285.5" cy="207.5" r="0.75" fill="#8493AD"/>
<circle cx="285.5" cy="222.5" r="0.75" fill="#8493AD"/>
<circle cx="285.5" cy="237.5" r="0.75" fill="#8493AD"/>
<circle cx="285.5" cy="252.5" r="0.75" fill="#8493AD"/>
<circle cx="300.5" cy="177.5" r="0.75" fill="#8493AD"/>
<circle cx="300.5" cy="192.5" r="0.75" fill="#8493AD"/>
<ellipse cx="300.496" cy="207.5" rx="1.5" ry="1.5" fill="#8493AD"/>
<circle cx="300.5" cy="222.5" r="0.75" fill="#8493AD"/>
<circle cx="300.5" cy="237.5" r="0.75" fill="#8493AD"/>
<circle cx="300.5" cy="252.5" r="0.75" fill="#8493AD"/>
<circle cx="315.5" cy="177.5" r="0.75" fill="#8493AD"/>
<circle cx="315.5" cy="192.5" r="0.75" fill="#8493AD"/>
<ellipse cx="315.496" cy="207.5" rx="1.5" ry="1.5" fill="#8493AD"/>
<circle cx="315.5" cy="222.5" r="0.75" fill="#8493AD"/>
<circle cx="315.5" cy="237.5" r="0.75" fill="#8493AD"/>
<ellipse cx="315.496" cy="252.5" rx="1.5" ry="1.5" fill="#8493AD"/>
<ellipse cx="330.496" cy="192.5" rx="1.5" ry="1.5" fill="#8493AD"/>
<circle cx="330.5" cy="207.5" r="0.75" fill="#8493AD"/>
<circle cx="330.5" cy="222.5" r="0.75" fill="#8493AD"/>
<ellipse cx="330.496" cy="237.5" rx="1.5" ry="1.5" fill="#8493AD"/>
<ellipse cx="330.496" cy="252.5" rx="1.5" ry="1.5" fill="#8493AD"/>
<ellipse cx="345.496" cy="177.5" rx="1.5" ry="1.5" fill="#8493AD"/>
<ellipse cx="345.496" cy="192.5" rx="1.5" ry="1.5" fill="#8493AD"/>
<circle cx="345.5" cy="207.5" r="0.75" fill="#8493AD"/>
<circle cx="345.5" cy="222.5" r="0.75" fill="#8493AD"/>
<ellipse cx="345.496" cy="237.5" rx="1.5" ry="1.5" fill="#8493AD"/>
<circle cx="345.5" cy="252.5" r="0.75" fill="#8493AD"/>
<circle cx="360.5" cy="177.5" r="0.75" fill="#8493AD"/>
<ellipse cx="360.496" cy="192.5" rx="1.5" ry="1.5" fill="#8493AD"/>
<circle cx="360.5" cy="207.5" r="0.75" fill="#8493AD"/>
<circle cx="360.5" cy="222.5" r="0.75" fill="#8493AD"/>
<circle cx="360.5" cy="237.5" r="0.75" fill="#8493AD"/>
<circle cx="360.5" cy="252.5" r="0.75" fill="#8493AD"/>
<circle cx="375.5" cy="207.5" r="0.75" fill="#8493AD"/>
<circle cx="375.5" cy="222.5" r="0.75" fill="#8493AD"/>
<circle cx="375.5" cy="237.5" r="0.75" fill="#8493AD"/>
<ellipse cx="375.496" cy="252.5" rx="1.5" ry="1.5" fill="#8493AD"/>
<circle cx="390.5" cy="237.5" r="0.75" fill="#8493AD"/>
<circle cx="390.5" cy="252.5" r="0.75" fill="#8493AD"/>
</svg>
