<svg width="184" height="72" viewBox="0 0 184 72" fill="none" xmlns="http://www.w3.org/2000/svg">
<path d="M51.3208 22.3169C52.5159 22.3169 53.4848 21.3505 53.4848 20.1584C53.4848 18.9664 52.5159 18 51.3208 18C50.1256 18 49.1567 18.9664 49.1567 20.1584C49.1567 21.3505 50.1256 22.3169 51.3208 22.3169Z" fill="#F6F8FC"/>
<path d="M53.7548 52.8053C54.95 52.8053 55.9189 51.8389 55.9189 50.6468C55.9189 49.4548 54.95 48.4884 53.7548 48.4884C52.5597 48.4884 51.5908 49.4548 51.5908 50.6468C51.5908 51.8389 52.5597 52.8053 53.7548 52.8053Z" fill="#F6F8FC"/>
<path d="M51.9388 27.7132C52.9419 27.7132 53.755 26.9021 53.755 25.9016C53.755 24.9011 52.9419 24.0901 51.9388 24.0901C50.9357 24.0901 50.1226 24.9011 50.1226 25.9016C50.1226 26.9021 50.9357 27.7132 51.9388 27.7132Z" fill="#F6F8FC"/>
<path d="M56.7698 28.4068C57.7729 28.4068 58.5861 27.5957 58.5861 26.5952C58.5861 25.5948 57.7729 24.7837 56.7698 24.7837C55.7668 24.7837 54.9536 25.5948 54.9536 26.5952C54.9536 27.5957 55.7668 28.4068 56.7698 28.4068Z" fill="#F6F8FC"/>
<path d="M51.3206 32.2998C52.1743 32.2998 52.8664 31.6095 52.8664 30.7581C52.8664 29.9066 52.1743 29.2163 51.3206 29.2163C50.4669 29.2163 49.7749 29.9066 49.7749 30.7581C49.7749 31.6095 50.4669 32.2998 51.3206 32.2998Z" fill="#F6F8FC"/>
<path d="M56.1507 32.9553C57.0044 32.9553 57.6964 32.2651 57.6964 31.4136C57.6964 30.5621 57.0044 29.8718 56.1507 29.8718C55.297 29.8718 54.605 30.5621 54.605 31.4136C54.605 32.2651 55.297 32.9553 56.1507 32.9553Z" fill="#F6F8FC"/>
<path d="M60.0155 34.4584C60.8691 34.4584 61.5612 33.7681 61.5612 32.9166C61.5612 32.0651 60.8691 31.3749 60.0155 31.3749C59.1618 31.3749 58.4697 32.0651 58.4697 32.9166C58.4697 33.7681 59.1618 34.4584 60.0155 34.4584Z" fill="#F6F8FC"/>
<path d="M54.7212 36.6552C55.4681 36.6552 56.0737 36.0512 56.0737 35.3062C56.0737 34.5611 55.4681 33.9572 54.7212 33.9572C53.9742 33.9572 53.3687 34.5611 53.3687 35.3062C53.3687 36.0512 53.9742 36.6552 54.7212 36.6552Z" fill="#F6F8FC"/>
<path d="M49.8911 35.9997C50.6381 35.9997 51.2436 35.3957 51.2436 34.6507C51.2436 33.9056 50.6381 33.3016 49.8911 33.3016C49.1441 33.3016 48.5386 33.9056 48.5386 34.6507C48.5386 35.3957 49.1441 35.9997 49.8911 35.9997Z" fill="#F6F8FC"/>
<path d="M58.624 38.1583C59.371 38.1583 59.9765 37.5543 59.9765 36.8092C59.9765 36.0642 59.371 35.4602 58.624 35.4602C57.877 35.4602 57.2715 36.0642 57.2715 36.8092C57.2715 37.5543 57.877 38.1583 58.624 38.1583Z" fill="#F6F8FC"/>
<path d="M52.7897 39.4686C53.4299 39.4686 53.949 38.9509 53.949 38.3123C53.949 37.6737 53.4299 37.156 52.7897 37.156C52.1494 37.156 51.6304 37.6737 51.6304 38.3123C51.6304 38.9509 52.1494 39.4686 52.7897 39.4686Z" fill="#F6F8FC"/>
<path d="M56.6925 40.9335C57.3328 40.9335 57.8518 40.4158 57.8518 39.7772C57.8518 39.1385 57.3328 38.6208 56.6925 38.6208C56.0522 38.6208 55.5332 39.1385 55.5332 39.7772C55.5332 40.4158 56.0522 40.9335 56.6925 40.9335Z" fill="#F6F8FC"/>
<path d="M47.9972 38.7746C48.6375 38.7746 49.1565 38.257 49.1565 37.6183C49.1565 36.9797 48.6375 36.462 47.9972 36.462C47.3569 36.462 46.8379 36.9797 46.8379 37.6183C46.8379 38.257 47.3569 38.7746 47.9972 38.7746Z" fill="#F6F8FC"/>
<path d="M50.6638 41.3576C51.1974 41.3576 51.6299 40.9262 51.6299 40.394C51.6299 39.8618 51.1974 39.4304 50.6638 39.4304C50.1303 39.4304 49.6978 39.8618 49.6978 40.394C49.6978 40.9262 50.1303 41.3576 50.6638 41.3576Z" fill="#F6F8FC"/>
<path d="M52.3252 44.0171C52.7948 44.0171 53.1754 43.6374 53.1754 43.1691C53.1754 42.7008 52.7948 42.3212 52.3252 42.3212C51.8557 42.3212 51.4751 42.7008 51.4751 43.1691C51.4751 43.6374 51.8557 44.0171 52.3252 44.0171Z" fill="#F6F8FC"/>
<path d="M50.2771 44.557C50.6613 44.557 50.9727 44.2464 50.9727 43.8632C50.9727 43.4801 50.6613 43.1694 50.2771 43.1694C49.893 43.1694 49.5815 43.4801 49.5815 43.8632C49.5815 44.2464 49.893 44.557 50.2771 44.557Z" fill="#F6F8FC"/>
<path d="M48.461 42.5524C48.9305 42.5524 49.3111 42.1727 49.3111 41.7044C49.3111 41.2361 48.9305 40.8564 48.461 40.8564C47.9915 40.8564 47.6108 41.2361 47.6108 41.7044C47.6108 42.1727 47.9915 42.5524 48.461 42.5524Z" fill="#F6F8FC"/>
<path d="M45.8338 40.7024C46.3673 40.7024 46.7998 40.271 46.7998 39.7389C46.7998 39.2067 46.3673 38.7753 45.8338 38.7753C45.3002 38.7753 44.8677 39.2067 44.8677 39.7389C44.8677 40.271 45.3002 40.7024 45.8338 40.7024Z" fill="#F6F8FC"/>
<path d="M45.7947 33.4556C46.3282 33.4556 46.7608 33.0242 46.7608 32.492C46.7608 31.9599 46.3282 31.5284 45.7947 31.5284C45.2611 31.5284 44.8286 31.9599 44.8286 32.492C44.8286 33.0242 45.2611 33.4556 45.7947 33.4556Z" fill="#F6F8FC"/>
<path d="M46.2198 30.064C46.6893 30.064 47.0699 29.6843 47.0699 29.216C47.0699 28.7477 46.6893 28.368 46.2198 28.368C45.7503 28.368 45.3696 28.7477 45.3696 29.216C45.3696 29.6843 45.7503 30.064 46.2198 30.064Z" fill="#F6F8FC"/>
<path d="M47.1472 27.2888C47.5314 27.2888 47.8428 26.9782 47.8428 26.595C47.8428 26.2119 47.5314 25.9012 47.1472 25.9012C46.7631 25.9012 46.4517 26.2119 46.4517 26.595C46.4517 26.9782 46.7631 27.2888 47.1472 27.2888Z" fill="#F6F8FC"/>
<path d="M45.524 25.9786C45.9935 25.9786 46.3741 25.599 46.3741 25.1307C46.3741 24.6624 45.9935 24.2827 45.524 24.2827C45.0545 24.2827 44.6738 24.6624 44.6738 25.1307C44.6738 25.599 45.0545 25.9786 45.524 25.9786Z" fill="#F6F8FC"/>
<path d="M54.5281 42.8218C55.0616 42.8218 55.4942 42.3904 55.4942 41.8582C55.4942 41.3261 55.0616 40.8947 54.5281 40.8947C53.9945 40.8947 53.562 41.3261 53.562 41.8582C53.562 42.3904 53.9945 42.8218 54.5281 42.8218Z" fill="#F6F8FC"/>
<path d="M43.3216 24.8608C43.8551 24.8608 44.2876 24.4294 44.2876 23.8972C44.2876 23.365 43.8551 22.9336 43.3216 22.9336C42.788 22.9336 42.3555 23.365 42.3555 23.8972C42.3555 24.4294 42.788 24.8608 43.3216 24.8608Z" fill="#F6F8FC"/>
<path d="M43.9783 28.9466C44.5118 28.9466 44.9444 28.5152 44.9444 27.983C44.9444 27.4508 44.5118 27.0194 43.9783 27.0194C43.4447 27.0194 43.0122 27.4508 43.0122 27.983C43.0122 28.5152 43.4447 28.9466 43.9783 28.9466Z" fill="#F6F8FC"/>
<path d="M42.8966 32.8392C43.5369 32.8392 44.0559 32.3215 44.0559 31.6829C44.0559 31.0443 43.5369 30.5266 42.8966 30.5266C42.2563 30.5266 41.7373 31.0443 41.7373 31.6829C41.7373 32.3215 42.2563 32.8392 42.8966 32.8392Z" fill="#F6F8FC"/>
<path d="M39.3799 32.839C40.1268 32.839 40.7324 32.2351 40.7324 31.49C40.7324 30.745 40.1268 30.141 39.3799 30.141C38.6329 30.141 38.0273 30.745 38.0273 31.49C38.0273 32.2351 38.6329 32.839 39.3799 32.839Z" fill="#F6F8FC"/>
<path d="M35.284 33.7645C36.1377 33.7645 36.8297 33.0743 36.8297 32.2228C36.8297 31.3713 36.1377 30.681 35.284 30.681C34.4303 30.681 33.7383 31.3713 33.7383 32.2228C33.7383 33.0743 34.4303 33.7645 35.284 33.7645Z" fill="#F6F8FC"/>
<path d="M30.8016 35.9617C31.8047 35.9617 32.6178 35.1507 32.6178 34.1502C32.6178 33.1497 31.8047 32.3386 30.8016 32.3386C29.7985 32.3386 28.9854 33.1497 28.9854 34.1502C28.9854 35.1507 29.7985 35.9617 30.8016 35.9617Z" fill="#F6F8FC"/>
<path d="M26.164 39.6616C27.3592 39.6616 28.328 38.6953 28.328 37.5032C28.328 36.3111 27.3592 35.3447 26.164 35.3447C24.9689 35.3447 24 36.3111 24 37.5032C24 38.6953 24.9689 39.6616 26.164 39.6616Z" fill="#F6F8FC"/>
<path d="M28.9852 31.4518C29.9883 31.4518 30.8014 30.6408 30.8014 29.6403C30.8014 28.6398 29.9883 27.8287 28.9852 27.8287C27.9821 27.8287 27.1689 28.6398 27.1689 29.6403C27.1689 30.6408 27.9821 31.4518 28.9852 31.4518Z" fill="#F6F8FC"/>
<path d="M33.4676 29.2546C34.3213 29.2546 35.0133 28.5644 35.0133 27.7129C35.0133 26.8614 34.3213 26.1711 33.4676 26.1711C32.6139 26.1711 31.9219 26.8614 31.9219 27.7129C31.9219 28.5644 32.6139 29.2546 33.4676 29.2546Z" fill="#F6F8FC"/>
<path d="M32.8104 25.1689C33.6641 25.1689 34.3561 24.4787 34.3561 23.6272C34.3561 22.7757 33.6641 22.0854 32.8104 22.0854C31.9567 22.0854 31.2646 22.7757 31.2646 23.6272C31.2646 24.4787 31.9567 25.1689 32.8104 25.1689Z" fill="#F6F8FC"/>
<path d="M36.9067 24.244C37.6537 24.244 38.2592 23.64 38.2592 22.8949C38.2592 22.1499 37.6537 21.5459 36.9067 21.5459C36.1597 21.5459 35.5542 22.1499 35.5542 22.8949C35.5542 23.64 36.1597 24.244 36.9067 24.244Z" fill="#F6F8FC"/>
<path d="M40.423 24.244C41.0632 24.244 41.5823 23.7263 41.5823 23.0877C41.5823 22.4491 41.0632 21.9314 40.423 21.9314C39.7827 21.9314 39.2637 22.4491 39.2637 23.0877C39.2637 23.7263 39.7827 24.244 40.423 24.244Z" fill="#F6F8FC"/>
<path d="M41.0802 28.3293C41.7205 28.3293 42.2395 27.8116 42.2395 27.173C42.2395 26.5344 41.7205 26.0167 41.0802 26.0167C40.4399 26.0167 39.9209 26.5344 39.9209 27.173C39.9209 27.8116 40.4399 28.3293 41.0802 28.3293Z" fill="#F6F8FC"/>
<path d="M37.5639 28.3683C38.3109 28.3683 38.9165 27.7644 38.9165 27.0193C38.9165 26.2743 38.3109 25.6703 37.5639 25.6703C36.817 25.6703 36.2114 26.2743 36.2114 27.0193C36.2114 27.7644 36.817 28.3683 37.5639 28.3683Z" fill="#F6F8FC"/>
<path d="M33.7381 38.6207C34.1222 38.6207 34.4336 38.3101 34.4336 37.9269C34.4336 37.5438 34.1222 37.2332 33.7381 37.2332C33.3539 37.2332 33.0425 37.5438 33.0425 37.9269C33.0425 38.3101 33.3539 38.6207 33.7381 38.6207Z" fill="#F6F8FC"/>
<path d="M36.5206 38.2742C36.9901 38.2742 37.3707 37.8945 37.3707 37.4262C37.3707 36.9579 36.9901 36.5782 36.5206 36.5782C36.051 36.5782 35.6704 36.9579 35.6704 37.4262C35.6704 37.8945 36.051 38.2742 36.5206 38.2742Z" fill="#F6F8FC"/>
<path d="M39.573 37.1181C40.1066 37.1181 40.5391 36.6867 40.5391 36.1545C40.5391 35.6223 40.1066 35.1909 39.573 35.1909C39.0395 35.1909 38.6069 35.6223 38.6069 36.1545C38.6069 36.6867 39.0395 37.1181 39.573 37.1181Z" fill="#F6F8FC"/>
<path d="M40.3072 40.2012C40.9475 40.2012 41.4665 39.6835 41.4665 39.0449C41.4665 38.4062 40.9475 37.8885 40.3072 37.8885C39.667 37.8885 39.1479 38.4062 39.1479 39.0449C39.1479 39.6835 39.667 40.2012 40.3072 40.2012Z" fill="#F6F8FC"/>
<path d="M36.5979 40.9333C37.1315 40.9333 37.564 40.5019 37.564 39.9697C37.564 39.4375 37.1315 39.0061 36.5979 39.0061C36.0644 39.0061 35.6318 39.4375 35.6318 39.9697C35.6318 40.5019 36.0644 40.9333 36.5979 40.9333Z" fill="#F6F8FC"/>
<path d="M33.313 40.8948C33.7826 40.8948 34.1632 40.5151 34.1632 40.0468C34.1632 39.5785 33.7826 39.1989 33.313 39.1989C32.8435 39.1989 32.4629 39.5785 32.4629 40.0468C32.4629 40.5151 32.8435 40.8948 33.313 40.8948Z" fill="#F6F8FC"/>
<path d="M33.3513 43.5545C33.8849 43.5545 34.3174 43.1231 34.3174 42.5909C34.3174 42.0587 33.8849 41.6273 33.3513 41.6273C32.8178 41.6273 32.3853 42.0587 32.3853 42.5909C32.3853 43.1231 32.8178 43.5545 33.3513 43.5545Z" fill="#F6F8FC"/>
<path d="M37.2931 44.0555C37.9334 44.0555 38.4524 43.5378 38.4524 42.8992C38.4524 42.2606 37.9334 41.7429 37.2931 41.7429C36.6528 41.7429 36.1338 42.2606 36.1338 42.8992C36.1338 43.5378 36.6528 44.0555 37.2931 44.0555Z" fill="#F6F8FC"/>
<path d="M41.8921 43.5545C42.639 43.5545 43.2446 42.9505 43.2446 42.2055C43.2446 41.4604 42.639 40.8564 41.8921 40.8564C41.1451 40.8564 40.5396 41.4604 40.5396 42.2055C40.5396 42.9505 41.1451 43.5545 41.8921 43.5545Z" fill="#F6F8FC"/>
<path d="M44.5965 46.9075C45.4502 46.9075 46.1422 46.2172 46.1422 45.3657C46.1422 44.5142 45.4502 43.824 44.5965 43.824C43.7428 43.824 43.0508 44.5142 43.0508 45.3657C43.0508 46.2172 43.7428 46.9075 44.5965 46.9075Z" fill="#F6F8FC"/>
<path d="M38.9165 47.3703C39.6635 47.3703 40.269 46.7663 40.269 46.0213C40.269 45.2762 39.6635 44.6722 38.9165 44.6722C38.1695 44.6722 37.564 45.2762 37.564 46.0213C37.564 46.7663 38.1695 47.3703 38.9165 47.3703Z" fill="#F6F8FC"/>
<path d="M35.709 49.991C36.4559 49.991 37.0615 49.387 37.0615 48.642C37.0615 47.8969 36.4559 47.293 35.709 47.293C34.962 47.293 34.3564 47.8969 34.3564 48.642C34.3564 49.387 34.962 49.991 35.709 49.991Z" fill="#F6F8FC"/>
<path d="M38.3748 53.3832C39.2285 53.3832 39.9206 52.6929 39.9206 51.8414C39.9206 50.9899 39.2285 50.2997 38.3748 50.2997C37.5211 50.2997 36.8291 50.9899 36.8291 51.8414C36.8291 52.6929 37.5211 53.3832 38.3748 53.3832Z" fill="#F6F8FC"/>
<path d="M45.4857 54.0001C46.4887 54.0001 47.3019 53.189 47.3019 52.1885C47.3019 51.188 46.4887 50.377 45.4857 50.377C44.4826 50.377 43.6694 51.188 43.6694 52.1885C43.6694 53.189 44.4826 54.0001 45.4857 54.0001Z" fill="#F6F8FC"/>
<path d="M41.5828 50.762C42.4365 50.762 43.1286 50.0717 43.1286 49.2202C43.1286 48.3687 42.4365 47.6785 41.5828 47.6785C40.7292 47.6785 40.0371 48.3687 40.0371 49.2202C40.0371 50.0717 40.7292 50.762 41.5828 50.762Z" fill="#F6F8FC"/>
<path d="M48.4613 50.1457C49.4643 50.1457 50.2775 49.3346 50.2775 48.3341C50.2775 47.3336 49.4643 46.5226 48.4613 46.5226C47.4582 46.5226 46.645 47.3336 46.645 48.3341C46.645 49.3346 47.4582 50.1457 48.4613 50.1457Z" fill="#F6F8FC"/>
<path d="M34.0856 46.6766C34.7258 46.6766 35.2449 46.1589 35.2449 45.5203C35.2449 44.8817 34.7258 44.364 34.0856 44.364C33.4453 44.364 32.9263 44.8817 32.9263 45.5203C32.9263 46.1589 33.4453 46.6766 34.0856 46.6766Z" fill="#F6F8FC"/>
<path d="M79.6532 24.426H77V47.6898H79.6532V24.426Z" fill="#F6F8FC"/>
<path d="M88.1938 36.0393C88.1938 29.5207 93.6567 24 100.081 24C106.542 24 111.927 29.4795 111.927 36.0393C111.927 42.5991 106.505 48.0786 100.081 48.0786C93.6939 48.116 88.1938 42.5991 88.1938 36.0393ZM109.274 36.0393C109.274 30.87 105.082 26.4707 100.081 26.4707C95.0801 26.4707 90.8507 30.87 90.8507 36.0393C90.8507 41.2497 95.0801 45.6453 100.081 45.6453C105.082 45.6453 109.274 41.2497 109.274 36.0393Z" fill="#F6F8FC"/>
<path d="M125.543 26.9341H117.736V24.426H135.969V26.9341H128.159V47.6898H125.506L125.543 26.9341Z" fill="#F6F8FC"/>
<path d="M149.891 27.6667L141.082 47.6898H138.198L147.853 25.738C148.199 24.9269 149.008 24.426 149.854 24.426C150.737 24.426 151.508 24.9269 151.855 25.738L161.51 47.6898H158.626L149.891 27.6667Z" fill="#F6F8FC"/>
</svg>
